<?xml version="1.0" encoding="UTF-8" standalone="no"?>
<!DOCTYPE svg PUBLIC "-//W3C//DTD SVG 1.1//EN"
 "http://www.w3.org/Graphics/SVG/1.1/DTD/svg11.dtd">
<!-- Generated by graphviz version 12.2.1 (20241206.2353)
 -->
<!-- Title: G Pages: 1 -->
<svg width="1031pt" height="1357pt"
 viewBox="0.00 0.00 1031.36 1357.00" xmlns="http://www.w3.org/2000/svg" xmlns:xlink="http://www.w3.org/1999/xlink">
<g id="graph0" class="graph" transform="scale(1 1) rotate(0) translate(4 1353)">
<title>G</title>
<polygon fill="#f9f9f9" stroke="none" points="-4,4 -4,-1353 1027.36,-1353 1027.36,4 -4,4"/>
<g id="clust1" class="cluster">
<title>cluster_1</title>
<polygon fill="#5dade2" fill-opacity="0.125490" stroke="#5dade2" stroke-width="2" points="42.45,-8 42.45,-1124 1015.36,-1124 1015.36,-8 42.45,-8"/>
<text text-anchor="middle" x="528.9" y="-1106.7" font-family="Arial" font-size="14.00">root</text>
</g>
<g id="clust2" class="cluster">
<title>cluster_2</title>
<polygon fill="#3498db" fill-opacity="0.125490" stroke="#3498db" stroke-width="2" points="298.78,-88 298.78,-272 990.39,-272 990.39,-88 298.78,-88"/>
<text text-anchor="middle" x="644.59" y="-254.7" font-family="Arial" font-size="14.00">rules_check</text>
</g>
<g id="clust3" class="cluster">
<title>cluster_3</title>
<polygon fill="#3498db" fill-opacity="0.125490" stroke="#3498db" stroke-width="2" points="302.53,-280 302.53,-464 1007.36,-464 1007.36,-280 302.53,-280"/>
<text text-anchor="middle" x="654.95" y="-446.7" font-family="Arial" font-size="14.00">libs_bench</text>
</g>
<g id="clust4" class="cluster">
<title>cluster_4</title>
<polygon fill="#3498db" fill-opacity="0.125490" stroke="#3498db" stroke-width="2" points="307.03,-472 307.03,-656 994.63,-656 994.63,-472 307.03,-472"/>
<text text-anchor="middle" x="650.83" y="-638.7" font-family="Arial" font-size="14.00">coverage</text>
</g>
<g id="clust5" class="cluster">
<title>cluster_5</title>
<polygon fill="#3498db" fill-opacity="0.125490" stroke="#3498db" stroke-width="2" points="308.91,-664 308.91,-848 989.33,-848 989.33,-664 308.91,-664"/>
<text text-anchor="middle" x="649.12" y="-830.7" font-family="Arial" font-size="14.00">codegen</text>
</g>
<g id="clust6" class="cluster">
<title>cluster_6</title>
<polygon fill="#3498db" fill-opacity="0.125490" stroke="#3498db" stroke-width="2" points="316.41,-908 316.41,-1092 968.12,-1092 968.12,-908 316.41,-908"/>
<text text-anchor="middle" x="642.26" y="-1074.7" font-family="Arial" font-size="14.00">bench</text>
</g>
<g id="clust7" class="cluster">
<title>cluster_legend</title>
<polygon fill="#f9f9f9" stroke="gray" stroke-width="2" stroke-dasharray="5,2" points="8,-1132 8,-1341 465.08,-1341 465.08,-1132 8,-1132"/>
<text text-anchor="middle" x="236.54" y="-1323.7" font-family="Arial" font-size="14.00">Legend</text>
</g>
<!-- n0 -->
<g id="node1" class="node">
<title>n0</title>
<polygon fill="#5dade2" stroke="black" stroke-width="1.5" points="116.9,-576.27 113.9,-580.27 92.9,-580.27 89.9,-576.27 50.45,-576.27 50.45,-531.73 116.9,-531.73 116.9,-576.27"/>
<text text-anchor="middle" x="83.67" y="-548.58" font-family="Arial" font-size="14.00">root</text>
</g>
<!-- n13 -->
<g id="node2" class="node">
<title>n13</title>
<ellipse fill="#eb984e" stroke="black" stroke-width="1.5" cx="364.38" cy="-48" rx="122.29" ry="31.5"/>
<text text-anchor="middle" x="364.38" y="-42.58" font-family="Arial" font-size="14.00">cargo (.): xtask v0.0.0</text>
</g>
<!-- n0&#45;&gt;n13 -->
<g id="edge13" class="edge">
<title>n0&#45;&gt;n13</title>
<path fill="none" stroke="blue" d="M117.16,-546.58C167.63,-546.58 257.36,-546.58 257.36,-546.58 257.36,-546.58 257.36,-72.98 257.36,-72.98"/>
<polygon fill="blue" stroke="blue" points="260.16,-72.98 257.36,-64.98 254.56,-72.98 260.16,-72.98"/>
<text text-anchor="middle" x="196.72" y="-143.5" font-family="Arial" font-size="10.00" fill="gray">Contain</text>
</g>
<!-- n10 -->
<g id="node3" class="node">
<title>n10</title>
<polygon fill="#3498db" stroke="black" stroke-width="1.5" points="421.98,-240.28 418.98,-244.28 397.98,-244.28 394.98,-240.28 306.78,-240.28 306.78,-195.72 421.98,-195.72 421.98,-240.28"/>
<text text-anchor="middle" x="364.38" y="-212.57" font-family="Arial" font-size="14.00">rules_check</text>
</g>
<!-- n0&#45;&gt;n10 -->
<g id="edge10" class="edge">
<title>n0&#45;&gt;n10</title>
<path fill="none" stroke="blue" d="M72.36,-531.43C72.36,-456.1 72.36,-218 72.36,-218 72.36,-218 296.83,-218 296.83,-218"/>
<polygon fill="blue" stroke="blue" points="296.83,-220.8 304.83,-218 296.83,-215.2 296.83,-220.8"/>
<text text-anchor="middle" x="196.72" y="-348.5" font-family="Arial" font-size="10.00" fill="gray">Contain</text>
</g>
<!-- n8 -->
<g id="node6" class="node">
<title>n8</title>
<polygon fill="#3498db" stroke="black" stroke-width="1.5" points="418.23,-432.27 415.23,-436.27 394.23,-436.27 391.23,-432.27 310.53,-432.27 310.53,-387.73 418.23,-387.73 418.23,-432.27"/>
<text text-anchor="middle" x="364.38" y="-404.57" font-family="Arial" font-size="14.00">libs_bench</text>
</g>
<!-- n0&#45;&gt;n8 -->
<g id="edge8" class="edge">
<title>n0&#45;&gt;n8</title>
<path fill="none" stroke="blue" d="M94.36,-531.5C94.36,-491 94.36,-410 94.36,-410 94.36,-410 300.55,-410 300.55,-410"/>
<polygon fill="blue" stroke="blue" points="300.55,-412.8 308.55,-410 300.55,-407.2 300.55,-412.8"/>
<text text-anchor="middle" x="196.72" y="-477.5" font-family="Arial" font-size="10.00" fill="gray">Contain</text>
</g>
<!-- n6 -->
<g id="node9" class="node">
<title>n6</title>
<polygon fill="#3498db" stroke="black" stroke-width="1.5" points="413.73,-576.27 410.73,-580.27 389.73,-580.27 386.73,-576.27 315.03,-576.27 315.03,-531.73 413.73,-531.73 413.73,-576.27"/>
<text text-anchor="middle" x="364.38" y="-548.58" font-family="Arial" font-size="14.00">coverage</text>
</g>
<!-- n0&#45;&gt;n6 -->
<g id="edge6" class="edge">
<title>n0&#45;&gt;n6</title>
<path fill="none" stroke="blue" d="M117.25,-561.42C117.25,-561.42 305.18,-561.42 305.18,-561.42"/>
<polygon fill="blue" stroke="blue" points="305.18,-564.23 313.18,-561.43 305.18,-558.63 305.18,-564.23"/>
<text text-anchor="middle" x="196.72" y="-556.5" font-family="Arial" font-size="10.00" fill="gray">Contain</text>
</g>
<!-- n4 -->
<g id="node12" class="node">
<title>n4</title>
<polygon fill="#3498db" stroke="black" stroke-width="1.5" points="411.86,-730.27 408.86,-734.27 387.86,-734.27 384.86,-730.27 316.91,-730.27 316.91,-685.73 411.86,-685.73 411.86,-730.27"/>
<text text-anchor="middle" x="364.38" y="-702.58" font-family="Arial" font-size="14.00">codegen</text>
</g>
<!-- n0&#45;&gt;n4 -->
<g id="edge4" class="edge">
<title>n0&#45;&gt;n4</title>
<path fill="none" stroke="blue" d="M100.36,-576.72C100.36,-619.56 100.36,-708 100.36,-708 100.36,-708 307.06,-708 307.06,-708"/>
<polygon fill="blue" stroke="blue" points="307.06,-710.8 315.06,-708 307.06,-705.2 307.06,-710.8"/>
<text text-anchor="middle" x="196.72" y="-678.5" font-family="Arial" font-size="10.00" fill="gray">Contain</text>
</g>
<!-- n3 -->
<g id="node15" class="node">
<title>n3</title>
<polygon fill="#fadbd8" stroke="black" points="413.36,-900.27 309.41,-900.27 309.41,-855.73 419.36,-855.73 419.36,-894.27 413.36,-900.27"/>
<polyline fill="none" stroke="black" points="413.36,-900.27 413.36,-894.27"/>
<polyline fill="none" stroke="black" points="419.36,-894.27 413.36,-894.27"/>
<text text-anchor="middle" x="364.38" y="-872.58" font-family="Arial" font-size="14.00">Cargo.toml</text>
</g>
<!-- n0&#45;&gt;n3 -->
<g id="edge3" class="edge">
<title>n0&#45;&gt;n3</title>
<path fill="none" stroke="blue" d="M83.36,-576.53C83.36,-650 83.36,-878 83.36,-878 83.36,-878 299.68,-878 299.68,-878"/>
<polygon fill="blue" stroke="blue" points="299.68,-880.8 307.68,-878 299.68,-875.2 299.68,-880.8"/>
<text text-anchor="middle" x="196.72" y="-824.5" font-family="Arial" font-size="10.00" fill="gray">Contain</text>
</g>
<!-- n1 -->
<g id="node16" class="node">
<title>n1</title>
<polygon fill="#3498db" stroke="black" stroke-width="1.5" points="404.36,-981.27 401.36,-985.27 380.36,-985.27 377.36,-981.27 324.41,-981.27 324.41,-936.73 404.36,-936.73 404.36,-981.27"/>
<text text-anchor="middle" x="364.38" y="-953.58" font-family="Arial" font-size="14.00">bench</text>
</g>
<!-- n0&#45;&gt;n1 -->
<g id="edge1" class="edge">
<title>n0&#45;&gt;n1</title>
<path fill="none" stroke="blue" d="M67.36,-576.64C67.36,-661.93 67.36,-959 67.36,-959 67.36,-959 314.5,-959 314.5,-959"/>
<polygon fill="blue" stroke="blue" points="314.5,-961.8 322.5,-959 314.5,-956.2 314.5,-961.8"/>
<text text-anchor="middle" x="196.72" y="-938.5" font-family="Arial" font-size="10.00" fill="gray">Contain</text>
</g>
<!-- n17 -->
<g id="node4" class="node">
<title>n17</title>
<ellipse fill="#eb984e" stroke="black" stroke-width="1.5" cx="777.89" cy="-128" rx="204.5" ry="31.5"/>
<text text-anchor="middle" x="777.89" y="-122.58" font-family="Arial" font-size="14.00">cargo (./rules_check): rules_check v0.0.0</text>
</g>
<!-- n10&#45;&gt;n17 -->
<g id="edge17" class="edge">
<title>n10&#45;&gt;n17</title>
<path fill="none" stroke="blue" d="M364.36,-195.29C364.36,-168.63 364.36,-128 364.36,-128 364.36,-128 563.43,-128 563.43,-128"/>
<polygon fill="blue" stroke="blue" points="563.43,-130.8 571.43,-128 563.43,-125.2 563.43,-130.8"/>
<text text-anchor="middle" x="521.55" y="-151.5" font-family="Arial" font-size="10.00" fill="gray">Contain</text>
</g>
<!-- n11 -->
<g id="node5" class="node">
<title>n11</title>
<polygon fill="#fadbd8" stroke="black" points="826.87,-240.28 722.92,-240.28 722.92,-195.72 832.87,-195.72 832.87,-234.28 826.87,-240.28"/>
<polyline fill="none" stroke="black" points="826.87,-240.28 826.87,-234.28"/>
<polyline fill="none" stroke="black" points="832.87,-234.28 826.87,-234.28"/>
<text text-anchor="middle" x="777.89" y="-212.57" font-family="Arial" font-size="14.00">Cargo.toml</text>
</g>
<!-- n10&#45;&gt;n11 -->
<g id="edge11" class="edge">
<title>n10&#45;&gt;n11</title>
<path fill="none" stroke="blue" d="M422.32,-218C422.32,-218 713.15,-218 713.15,-218"/>
<polygon fill="blue" stroke="blue" points="713.15,-220.8 721.15,-218 713.15,-215.2 713.15,-220.8"/>
<text text-anchor="middle" x="521.55" y="-220.5" font-family="Arial" font-size="10.00" fill="gray">Contain</text>
</g>
<!-- n16 -->
<g id="node7" class="node">
<title>n16</title>
<ellipse fill="#eb984e" stroke="black" stroke-width="1.5" cx="777.89" cy="-320" rx="221.47" ry="31.5"/>
<text text-anchor="middle" x="777.89" y="-314.57" font-family="Arial" font-size="14.00">cargo (./libs_bench): xtask_libs_bench v0.0.0</text>
</g>
<!-- n8&#45;&gt;n16 -->
<g id="edge16" class="edge">
<title>n8&#45;&gt;n16</title>
<path fill="none" stroke="blue" d="M418.48,-402.57C477.1,-402.57 562.36,-402.57 562.36,-402.57 562.36,-402.57 562.36,-337.13 562.36,-337.13"/>
<polygon fill="blue" stroke="blue" points="565.16,-337.13 562.36,-329.13 559.56,-337.13 565.16,-337.13"/>
<text text-anchor="middle" x="521.55" y="-343.5" font-family="Arial" font-size="10.00" fill="gray">Contain</text>
</g>
<!-- n9 -->
<g id="node8" class="node">
<title>n9</title>
<polygon fill="#fadbd8" stroke="black" points="826.87,-432.27 722.92,-432.27 722.92,-387.73 832.87,-387.73 832.87,-426.27 826.87,-432.27"/>
<polyline fill="none" stroke="black" points="826.87,-432.27 826.87,-426.27"/>
<polyline fill="none" stroke="black" points="832.87,-426.27 826.87,-426.27"/>
<text text-anchor="middle" x="777.89" y="-404.57" font-family="Arial" font-size="14.00">Cargo.toml</text>
</g>
<!-- n8&#45;&gt;n9 -->
<g id="edge9" class="edge">
<title>n8&#45;&gt;n9</title>
<path fill="none" stroke="blue" d="M418.44,-417.43C418.44,-417.43 712.99,-417.43 712.99,-417.43"/>
<polygon fill="blue" stroke="blue" points="712.99,-420.23 720.99,-417.43 712.99,-414.63 712.99,-420.23"/>
<text text-anchor="middle" x="521.55" y="-412.5" font-family="Arial" font-size="10.00" fill="gray">Contain</text>
</g>
<!-- n15 -->
<g id="node10" class="node">
<title>n15</title>
<ellipse fill="#eb984e" stroke="black" stroke-width="1.5" cx="777.89" cy="-512" rx="208.74" ry="31.5"/>
<text text-anchor="middle" x="777.89" y="-506.57" font-family="Arial" font-size="14.00">cargo (./coverage): xtask_coverage v0.0.0</text>
</g>
<!-- n6&#45;&gt;n15 -->
<g id="edge15" class="edge">
<title>n6&#45;&gt;n15</title>
<path fill="none" stroke="blue" d="M413.85,-537.61C413.85,-537.61 643.16,-537.61 643.16,-537.61"/>
<polygon fill="blue" stroke="blue" points="643.16,-540.41 651.16,-537.61 643.16,-534.81 643.16,-540.41"/>
<text text-anchor="middle" x="521.55" y="-534.5" font-family="Arial" font-size="10.00" fill="gray">Contain</text>
</g>
<!-- n7 -->
<g id="node11" class="node">
<title>n7</title>
<polygon fill="#fadbd8" stroke="black" points="826.87,-624.27 722.92,-624.27 722.92,-579.73 832.87,-579.73 832.87,-618.27 826.87,-624.27"/>
<polyline fill="none" stroke="black" points="826.87,-624.27 826.87,-618.27"/>
<polyline fill="none" stroke="black" points="832.87,-618.27 826.87,-618.27"/>
<text text-anchor="middle" x="777.89" y="-596.58" font-family="Arial" font-size="14.00">Cargo.toml</text>
</g>
<!-- n6&#45;&gt;n7 -->
<g id="edge7" class="edge">
<title>n6&#45;&gt;n7</title>
<path fill="none" stroke="blue" d="M364.36,-576.59C364.36,-589.04 364.36,-602 364.36,-602 364.36,-602 713.04,-602 713.04,-602"/>
<polygon fill="blue" stroke="blue" points="713.04,-604.8 721.04,-602 713.04,-599.2 713.04,-604.8"/>
<text text-anchor="middle" x="521.55" y="-595.5" font-family="Arial" font-size="10.00" fill="gray">Contain</text>
</g>
<!-- n14 -->
<g id="node13" class="node">
<title>n14</title>
<ellipse fill="#eb984e" stroke="black" stroke-width="1.5" cx="777.89" cy="-704" rx="203.43" ry="31.5"/>
<text text-anchor="middle" x="777.89" y="-698.58" font-family="Arial" font-size="14.00">cargo (./codegen): xtask_codegen v0.0.0</text>
</g>
<!-- n4&#45;&gt;n14 -->
<g id="edge14" class="edge">
<title>n4&#45;&gt;n14</title>
<path fill="none" stroke="blue" d="M412.22,-708C412.22,-708 566.24,-708 566.24,-708"/>
<polygon fill="blue" stroke="blue" points="566.24,-710.8 574.24,-708 566.24,-705.2 566.24,-710.8"/>
<text text-anchor="middle" x="521.55" y="-710.5" font-family="Arial" font-size="10.00" fill="gray">Contain</text>
</g>
<!-- n5 -->
<g id="node14" class="node">
<title>n5</title>
<polygon fill="#fadbd8" stroke="black" points="826.87,-816.27 722.92,-816.27 722.92,-771.73 832.87,-771.73 832.87,-810.27 826.87,-816.27"/>
<polyline fill="none" stroke="black" points="826.87,-816.27 826.87,-810.27"/>
<polyline fill="none" stroke="black" points="832.87,-810.27 826.87,-810.27"/>
<text text-anchor="middle" x="777.89" y="-788.58" font-family="Arial" font-size="14.00">Cargo.toml</text>
</g>
<!-- n4&#45;&gt;n5 -->
<g id="edge5" class="edge">
<title>n4&#45;&gt;n5</title>
<path fill="none" stroke="blue" d="M364.36,-730.6C364.36,-756.08 364.36,-794 364.36,-794 364.36,-794 713.04,-794 713.04,-794"/>
<polygon fill="blue" stroke="blue" points="713.04,-796.8 721.04,-794 713.04,-791.2 713.04,-796.8"/>
<text text-anchor="middle" x="521.55" y="-779.5" font-family="Arial" font-size="10.00" fill="gray">Contain</text>
</g>
<!-- n12 -->
<g id="node17" class="node">
<title>n12</title>
<ellipse fill="#eb984e" stroke="black" stroke-width="1.5" cx="777.89" cy="-948" rx="182.22" ry="31.5"/>
<text text-anchor="middle" x="777.89" y="-942.58" font-family="Arial" font-size="14.00">cargo (./bench): xtask_bench v0.0.0</text>
</g>
<!-- n1&#45;&gt;n12 -->
<g id="edge12" class="edge">
<title>n1&#45;&gt;n12</title>
<path fill="none" stroke="blue" d="M404.79,-958.11C404.79,-958.11 595.08,-958.11 595.08,-958.11"/>
<polygon fill="blue" stroke="blue" points="595.08,-960.91 603.08,-958.11 595.08,-955.31 595.08,-960.91"/>
<text text-anchor="middle" x="521.55" y="-957.5" font-family="Arial" font-size="10.00" fill="gray">Contain</text>
</g>
<!-- n2 -->
<g id="node18" class="node">
<title>n2</title>
<polygon fill="#fadbd8" stroke="black" points="826.87,-1060.28 722.92,-1060.28 722.92,-1015.73 832.87,-1015.73 832.87,-1054.28 826.87,-1060.28"/>
<polyline fill="none" stroke="black" points="826.87,-1060.28 826.87,-1054.28"/>
<polyline fill="none" stroke="black" points="832.87,-1054.28 826.87,-1054.28"/>
<text text-anchor="middle" x="777.89" y="-1032.58" font-family="Arial" font-size="14.00">Cargo.toml</text>
</g>
<!-- n1&#45;&gt;n2 -->
<g id="edge2" class="edge">
<title>n1&#45;&gt;n2</title>
<path fill="none" stroke="blue" d="M400.36,-981.43C400.36,-1004.78 400.36,-1038 400.36,-1038 400.36,-1038 713.08,-1038 713.08,-1038"/>
<polygon fill="blue" stroke="blue" points="713.08,-1040.8 721.08,-1038 713.08,-1035.2 713.08,-1040.8"/>
<text text-anchor="middle" x="521.55" y="-1025.5" font-family="Arial" font-size="10.00" fill="gray">Contain</text>
</g>
<!-- dir -->
<g id="node19" class="node">
<title>dir</title>
<polygon fill="#5dade2" stroke="black" points="132.27,-1197.28 129.27,-1201.28 108.27,-1201.28 105.27,-1197.28 35.07,-1197.28 35.07,-1152.72 132.27,-1152.72 132.27,-1197.28"/>
<text text-anchor="middle" x="83.67" y="-1169.58" font-family="Arial" font-size="14.00">Directory</text>
</g>
<!-- file -->
<g id="node20" class="node">
<title>file</title>
<polygon fill="#fadbd8" stroke="black" points="390.86,-1184.28 331.91,-1184.28 331.91,-1139.72 396.86,-1139.72 396.86,-1178.28 390.86,-1184.28"/>
<polyline fill="none" stroke="black" points="390.86,-1184.28 390.86,-1178.28"/>
<polyline fill="none" stroke="black" points="396.86,-1178.28 390.86,-1178.28"/>
<text text-anchor="middle" x="364.38" y="-1156.58" font-family="Arial" font-size="14.00">File</text>
</g>
<!-- dir&#45;&gt;file -->
<g id="edge18" class="edge">
<title>dir&#45;&gt;file</title>
<path fill="none" stroke="blue" d="M132.57,-1168.5C132.57,-1168.5 320.29,-1168.5 320.29,-1168.5"/>
<polygon fill="blue" stroke="blue" points="320.29,-1172 330.29,-1168.5 320.29,-1165 320.29,-1172"/>
<text text-anchor="middle" x="196.72" y="-1178.5" font-family="Arial" font-size="10.00" fill="gray">Contain</text>
</g>
<!-- pkg -->
<g id="node21" class="node">
<title>pkg</title>
<ellipse fill="#eb984e" stroke="black" cx="83.67" cy="-1265" rx="67.67" ry="31.5"/>
<text text-anchor="middle" x="83.67" y="-1259.58" font-family="Arial" font-size="14.00">Package</text>
</g>
<!-- ext -->
<g id="node22" class="node">
<title>ext</title>
<polygon fill="#ec7063" stroke="black" points="418.52,-1309.55 310.25,-1309.55 271.68,-1220.45 457.08,-1220.45 418.52,-1309.55"/>
<text text-anchor="middle" x="364.38" y="-1259.58" font-family="Arial" font-size="14.00">External</text>
</g>
<!-- pkg&#45;&gt;ext -->
<g id="edge19" class="edge">
<title>pkg&#45;&gt;ext</title>
<path fill="none" stroke="red" stroke-dasharray="5,2" d="M151.62,-1265C151.62,-1265 279.15,-1265 279.15,-1265"/>
<polygon fill="red" stroke="red" points="279.15,-1268.5 289.15,-1265 279.15,-1261.5 279.15,-1268.5"/>
<text text-anchor="middle" x="196.72" y="-1267.5" font-family="Arial" font-size="10.00" fill="gray">Dependency</text>
</g>
</g>
</svg>
