<?xml version="1.0" encoding="UTF-8" standalone="no"?>
<!DOCTYPE svg PUBLIC "-//W3C//DTD SVG 1.1//EN"
 "http://www.w3.org/Graphics/SVG/1.1/DTD/svg11.dtd">
<!-- Generated by graphviz version 12.2.1 (20241206.2353)
 -->
<!-- Title: G Pages: 1 -->
<svg width="699pt" height="425pt"
 viewBox="0.00 0.00 699.48 425.00" xmlns="http://www.w3.org/2000/svg" xmlns:xlink="http://www.w3.org/1999/xlink">
<g id="graph0" class="graph" transform="scale(1 1) rotate(0) translate(4 421)">
<title>G</title>
<polygon fill="#f9f9f9" stroke="none" points="-4,4 -4,-421 695.48,-421 695.48,4 -4,4"/>
<g id="clust1" class="cluster">
<title>cluster_1</title>
<polygon fill="#5dade2" fill-opacity="0.125490" stroke="#5dade2" stroke-width="2" points="42.45,-8 42.45,-192 683.48,-192 683.48,-8 42.45,-8"/>
<text text-anchor="middle" x="362.96" y="-174.7" font-family="Arial" font-size="14.00">root</text>
</g>
<g id="clust2" class="cluster">
<title>cluster_legend</title>
<polygon fill="#f9f9f9" stroke="gray" stroke-width="2" stroke-dasharray="5,2" points="8,-200 8,-409 559.48,-409 559.48,-200 8,-200"/>
<text text-anchor="middle" x="283.74" y="-391.7" font-family="Arial" font-size="14.00">Legend</text>
</g>
<!-- n0 -->
<g id="node1" class="node">
<title>n0</title>
<polygon fill="#5dade2" stroke="black" stroke-width="1.5" points="116.9,-120.28 113.9,-124.28 92.9,-124.28 89.9,-120.28 50.45,-120.28 50.45,-75.72 116.9,-75.72 116.9,-120.28"/>
<text text-anchor="middle" x="83.67" y="-92.58" font-family="Arial" font-size="14.00">root</text>
</g>
<!-- n2 -->
<g id="node2" class="node">
<title>n2</title>
<ellipse fill="#eb984e" stroke="black" stroke-width="1.5" cx="458.78" cy="-48" rx="216.69" ry="31.5"/>
<text text-anchor="middle" x="458.78" y="-42.58" font-family="Arial" font-size="14.00">cargo (.): biome_diagnostics_macros v0.5.7</text>
</g>
<!-- n0&#45;&gt;n2 -->
<g id="edge2" class="edge">
<title>n0&#45;&gt;n2</title>
<path fill="none" stroke="blue" d="M83.48,-75.39C83.48,-61.41 83.48,-46.11 83.48,-46.11 83.48,-46.11 232.58,-46.11 232.58,-46.11"/>
<polygon fill="blue" stroke="blue" points="232.58,-48.91 240.58,-46.11 232.58,-43.31 232.58,-48.91"/>
<text text-anchor="middle" x="196.72" y="-70.5" font-family="Arial" font-size="10.00" fill="gray">Contain</text>
</g>
<!-- n1 -->
<g id="node3" class="node">
<title>n1</title>
<polygon fill="#fadbd8" stroke="black" points="507.76,-160.28 403.81,-160.28 403.81,-115.72 513.76,-115.72 513.76,-154.28 507.76,-160.28"/>
<polyline fill="none" stroke="black" points="507.76,-160.28 507.76,-154.28"/>
<polyline fill="none" stroke="black" points="513.76,-154.28 507.76,-154.28"/>
<text text-anchor="middle" x="458.78" y="-132.57" font-family="Arial" font-size="14.00">Cargo.toml</text>
</g>
<!-- n0&#45;&gt;n1 -->
<g id="edge1" class="edge">
<title>n0&#45;&gt;n1</title>
<path fill="none" stroke="blue" d="M83.48,-120.62C83.48,-130.67 83.48,-140.28 83.48,-140.28 83.48,-140.28 393.89,-140.28 393.89,-140.28"/>
<polygon fill="blue" stroke="blue" points="393.89,-143.08 401.89,-140.28 393.89,-137.48 393.89,-143.08"/>
<text text-anchor="middle" x="196.72" y="-131.5" font-family="Arial" font-size="10.00" fill="gray">Contain</text>
</g>
<!-- dir -->
<g id="node4" class="node">
<title>dir</title>
<polygon fill="#5dade2" stroke="black" points="132.27,-265.27 129.27,-269.27 108.27,-269.27 105.27,-265.27 35.07,-265.27 35.07,-220.72 132.27,-220.72 132.27,-265.27"/>
<text text-anchor="middle" x="83.67" y="-237.57" font-family="Arial" font-size="14.00">Directory</text>
</g>
<!-- file -->
<g id="node5" class="node">
<title>file</title>
<polygon fill="#fadbd8" stroke="black" points="485.26,-252.28 426.31,-252.28 426.31,-207.72 491.26,-207.72 491.26,-246.28 485.26,-252.28"/>
<polyline fill="none" stroke="black" points="485.26,-252.28 485.26,-246.28"/>
<polyline fill="none" stroke="black" points="491.26,-246.28 485.26,-246.28"/>
<text text-anchor="middle" x="458.78" y="-224.57" font-family="Arial" font-size="14.00">File</text>
</g>
<!-- dir&#45;&gt;file -->
<g id="edge3" class="edge">
<title>dir&#45;&gt;file</title>
<path fill="none" stroke="blue" d="M132.71,-236.5C132.71,-236.5 414.51,-236.5 414.51,-236.5"/>
<polygon fill="blue" stroke="blue" points="414.51,-240 424.51,-236.5 414.51,-233 414.51,-240"/>
<text text-anchor="middle" x="196.72" y="-246.5" font-family="Arial" font-size="10.00" fill="gray">Contain</text>
</g>
<!-- pkg -->
<g id="node6" class="node">
<title>pkg</title>
<ellipse fill="#eb984e" stroke="black" cx="83.67" cy="-333" rx="67.67" ry="31.5"/>
<text text-anchor="middle" x="83.67" y="-327.57" font-family="Arial" font-size="14.00">Package</text>
</g>
<!-- ext -->
<g id="node7" class="node">
<title>ext</title>
<polygon fill="#ec7063" stroke="black" points="512.92,-377.55 404.64,-377.55 366.08,-288.45 551.48,-288.45 512.92,-377.55"/>
<text text-anchor="middle" x="458.78" y="-327.57" font-family="Arial" font-size="14.00">External</text>
</g>
<!-- pkg&#45;&gt;ext -->
<g id="edge4" class="edge">
<title>pkg&#45;&gt;ext</title>
<path fill="none" stroke="red" stroke-dasharray="5,2" d="M151.6,-333C151.6,-333 373.43,-333 373.43,-333"/>
<polygon fill="red" stroke="red" points="373.43,-336.5 383.43,-333 373.43,-329.5 373.43,-336.5"/>
<text text-anchor="middle" x="196.72" y="-335.5" font-family="Arial" font-size="10.00" fill="gray">Dependency</text>
</g>
</g>
</svg>
