<?xml version="1.0" encoding="UTF-8" standalone="no"?>
<!DOCTYPE svg PUBLIC "-//W3C//DTD SVG 1.1//EN"
 "http://www.w3.org/Graphics/SVG/1.1/DTD/svg11.dtd">
<!-- Generated by graphviz version 12.2.1 (20241206.2353)
 -->
<!-- Title: G Pages: 1 -->
<svg width="670pt" height="425pt"
 viewBox="0.00 0.00 669.78 425.00" xmlns="http://www.w3.org/2000/svg" xmlns:xlink="http://www.w3.org/1999/xlink">
<g id="graph0" class="graph" transform="scale(1 1) rotate(0) translate(4 421)">
<title>G</title>
<polygon fill="#f9f9f9" stroke="none" points="-4,4 -4,-421 665.78,-421 665.78,4 -4,4"/>
<g id="clust1" class="cluster">
<title>cluster_1</title>
<polygon fill="#5dade2" fill-opacity="0.125490" stroke="#5dade2" stroke-width="2" points="42.45,-8 42.45,-192 653.78,-192 653.78,-8 42.45,-8"/>
<text text-anchor="middle" x="348.11" y="-174.7" font-family="Arial" font-size="14.00">root</text>
</g>
<g id="clust2" class="cluster">
<title>cluster_legend</title>
<polygon fill="#f9f9f9" stroke="gray" stroke-width="2" stroke-dasharray="5,2" points="8,-200 8,-409 544.63,-409 544.63,-200 8,-200"/>
<text text-anchor="middle" x="276.32" y="-391.7" font-family="Arial" font-size="14.00">Legend</text>
</g>
<!-- n0 -->
<g id="node1" class="node">
<title>n0</title>
<polygon fill="#5dade2" stroke="black" stroke-width="1.5" points="116.9,-120.28 113.9,-124.28 92.9,-124.28 89.9,-120.28 50.45,-120.28 50.45,-75.72 116.9,-75.72 116.9,-120.28"/>
<text text-anchor="middle" x="83.67" y="-92.58" font-family="Arial" font-size="14.00">root</text>
</g>
<!-- n2 -->
<g id="node2" class="node">
<title>n2</title>
<ellipse fill="#eb984e" stroke="black" stroke-width="1.5" cx="443.93" cy="-48" rx="201.84" ry="31.5"/>
<text text-anchor="middle" x="443.93" y="-42.58" font-family="Arial" font-size="14.00">cargo (.): biome_graphql_analyze v0.0.1</text>
</g>
<!-- n0&#45;&gt;n2 -->
<g id="edge2" class="edge">
<title>n0&#45;&gt;n2</title>
<path fill="none" stroke="blue" d="M83.78,-75.39C83.78,-61.41 83.78,-46.11 83.78,-46.11 83.78,-46.11 232.5,-46.11 232.5,-46.11"/>
<polygon fill="blue" stroke="blue" points="232.5,-48.91 240.5,-46.11 232.5,-43.31 232.5,-48.91"/>
<text text-anchor="middle" x="196.72" y="-70.5" font-family="Arial" font-size="10.00" fill="gray">Contain</text>
</g>
<!-- n1 -->
<g id="node3" class="node">
<title>n1</title>
<polygon fill="#fadbd8" stroke="black" points="492.91,-160.28 388.96,-160.28 388.96,-115.72 498.91,-115.72 498.91,-154.28 492.91,-160.28"/>
<polyline fill="none" stroke="black" points="492.91,-160.28 492.91,-154.28"/>
<polyline fill="none" stroke="black" points="498.91,-154.28 492.91,-154.28"/>
<text text-anchor="middle" x="443.93" y="-132.57" font-family="Arial" font-size="14.00">Cargo.toml</text>
</g>
<!-- n0&#45;&gt;n1 -->
<g id="edge1" class="edge">
<title>n0&#45;&gt;n1</title>
<path fill="none" stroke="blue" d="M83.78,-120.62C83.78,-130.67 83.78,-140.28 83.78,-140.28 83.78,-140.28 379.33,-140.28 379.33,-140.28"/>
<polygon fill="blue" stroke="blue" points="379.33,-143.08 387.33,-140.28 379.33,-137.48 379.33,-143.08"/>
<text text-anchor="middle" x="196.72" y="-131.5" font-family="Arial" font-size="10.00" fill="gray">Contain</text>
</g>
<!-- dir -->
<g id="node4" class="node">
<title>dir</title>
<polygon fill="#5dade2" stroke="black" points="132.27,-265.27 129.27,-269.27 108.27,-269.27 105.27,-265.27 35.07,-265.27 35.07,-220.72 132.27,-220.72 132.27,-265.27"/>
<text text-anchor="middle" x="83.67" y="-237.57" font-family="Arial" font-size="14.00">Directory</text>
</g>
<!-- file -->
<g id="node5" class="node">
<title>file</title>
<polygon fill="#fadbd8" stroke="black" points="470.41,-252.28 411.46,-252.28 411.46,-207.72 476.41,-207.72 476.41,-246.28 470.41,-252.28"/>
<polyline fill="none" stroke="black" points="470.41,-252.28 470.41,-246.28"/>
<polyline fill="none" stroke="black" points="476.41,-246.28 470.41,-246.28"/>
<text text-anchor="middle" x="443.93" y="-224.57" font-family="Arial" font-size="14.00">File</text>
</g>
<!-- dir&#45;&gt;file -->
<g id="edge3" class="edge">
<title>dir&#45;&gt;file</title>
<path fill="none" stroke="blue" d="M132.63,-236.5C132.63,-236.5 399.62,-236.5 399.62,-236.5"/>
<polygon fill="blue" stroke="blue" points="399.62,-240 409.62,-236.5 399.62,-233 399.62,-240"/>
<text text-anchor="middle" x="196.72" y="-246.5" font-family="Arial" font-size="10.00" fill="gray">Contain</text>
</g>
<!-- pkg -->
<g id="node6" class="node">
<title>pkg</title>
<ellipse fill="#eb984e" stroke="black" cx="83.67" cy="-333" rx="67.67" ry="31.5"/>
<text text-anchor="middle" x="83.67" y="-327.57" font-family="Arial" font-size="14.00">Package</text>
</g>
<!-- ext -->
<g id="node7" class="node">
<title>ext</title>
<polygon fill="#ec7063" stroke="black" points="498.07,-377.55 389.8,-377.55 351.23,-288.45 536.63,-288.45 498.07,-377.55"/>
<text text-anchor="middle" x="443.93" y="-327.57" font-family="Arial" font-size="14.00">External</text>
</g>
<!-- pkg&#45;&gt;ext -->
<g id="edge4" class="edge">
<title>pkg&#45;&gt;ext</title>
<path fill="none" stroke="red" stroke-dasharray="5,2" d="M151.43,-333C151.43,-333 358.76,-333 358.76,-333"/>
<polygon fill="red" stroke="red" points="358.76,-336.5 368.76,-333 358.76,-329.5 358.76,-336.5"/>
<text text-anchor="middle" x="196.72" y="-335.5" font-family="Arial" font-size="10.00" fill="gray">Dependency</text>
</g>
</g>
</svg>
