<?xml version="1.0" encoding="UTF-8" standalone="no"?>
<!DOCTYPE svg PUBLIC "-//W3C//DTD SVG 1.1//EN"
 "http://www.w3.org/Graphics/SVG/1.1/DTD/svg11.dtd">
<!-- Generated by graphviz version 12.2.1 (20241206.2353)
 -->
<!-- Title: G Pages: 1 -->
<svg width="596pt" height="425pt"
 viewBox="0.00 0.00 595.53 425.00" xmlns="http://www.w3.org/2000/svg" xmlns:xlink="http://www.w3.org/1999/xlink">
<g id="graph0" class="graph" transform="scale(1 1) rotate(0) translate(4 421)">
<title>G</title>
<polygon fill="#f9f9f9" stroke="none" points="-4,4 -4,-421 591.53,-421 591.53,4 -4,4"/>
<g id="clust1" class="cluster">
<title>cluster_1</title>
<polygon fill="#5dade2" fill-opacity="0.125490" stroke="#5dade2" stroke-width="2" points="42.45,-8 42.45,-192 579.53,-192 579.53,-8 42.45,-8"/>
<text text-anchor="middle" x="310.99" y="-174.7" font-family="Arial" font-size="14.00">root</text>
</g>
<g id="clust2" class="cluster">
<title>cluster_legend</title>
<polygon fill="#f9f9f9" stroke="gray" stroke-width="2" stroke-dasharray="5,2" points="8,-200 8,-409 507.51,-409 507.51,-200 8,-200"/>
<text text-anchor="middle" x="257.76" y="-391.7" font-family="Arial" font-size="14.00">Legend</text>
</g>
<!-- n0 -->
<g id="node1" class="node">
<title>n0</title>
<polygon fill="#5dade2" stroke="black" stroke-width="1.5" points="116.9,-120.28 113.9,-124.28 92.9,-124.28 89.9,-120.28 50.45,-120.28 50.45,-75.72 116.9,-75.72 116.9,-120.28"/>
<text text-anchor="middle" x="83.67" y="-92.58" font-family="Arial" font-size="14.00">root</text>
</g>
<!-- n2 -->
<g id="node2" class="node">
<title>n2</title>
<ellipse fill="#eb984e" stroke="black" stroke-width="1.5" cx="406.81" cy="-48" rx="164.72" ry="31.5"/>
<text text-anchor="middle" x="406.81" y="-42.58" font-family="Arial" font-size="14.00">cargo (.): biome_console v0.5.7</text>
</g>
<!-- n0&#45;&gt;n2 -->
<g id="edge2" class="edge">
<title>n0&#45;&gt;n2</title>
<path fill="none" stroke="blue" d="M117.17,-97.61C172.88,-97.61 278.53,-97.61 278.53,-97.61 278.53,-97.61 278.53,-77.41 278.53,-77.41"/>
<polygon fill="blue" stroke="blue" points="281.33,-77.41 278.53,-69.41 275.73,-77.41 281.33,-77.41"/>
<text text-anchor="middle" x="196.72" y="-70.5" font-family="Arial" font-size="10.00" fill="gray">Contain</text>
</g>
<!-- n1 -->
<g id="node3" class="node">
<title>n1</title>
<polygon fill="#fadbd8" stroke="black" points="455.79,-160.28 351.84,-160.28 351.84,-115.72 461.79,-115.72 461.79,-154.28 455.79,-160.28"/>
<polyline fill="none" stroke="black" points="455.79,-160.28 455.79,-154.28"/>
<polyline fill="none" stroke="black" points="461.79,-154.28 455.79,-154.28"/>
<text text-anchor="middle" x="406.81" y="-132.57" font-family="Arial" font-size="14.00">Cargo.toml</text>
</g>
<!-- n0&#45;&gt;n1 -->
<g id="edge1" class="edge">
<title>n0&#45;&gt;n1</title>
<path fill="none" stroke="blue" d="M83.53,-120.62C83.53,-130.67 83.53,-140.28 83.53,-140.28 83.53,-140.28 342.09,-140.28 342.09,-140.28"/>
<polygon fill="blue" stroke="blue" points="342.09,-143.08 350.09,-140.28 342.09,-137.48 342.09,-143.08"/>
<text text-anchor="middle" x="196.72" y="-131.5" font-family="Arial" font-size="10.00" fill="gray">Contain</text>
</g>
<!-- dir -->
<g id="node4" class="node">
<title>dir</title>
<polygon fill="#5dade2" stroke="black" points="132.27,-265.27 129.27,-269.27 108.27,-269.27 105.27,-265.27 35.07,-265.27 35.07,-220.72 132.27,-220.72 132.27,-265.27"/>
<text text-anchor="middle" x="83.67" y="-237.57" font-family="Arial" font-size="14.00">Directory</text>
</g>
<!-- file -->
<g id="node5" class="node">
<title>file</title>
<polygon fill="#fadbd8" stroke="black" points="433.29,-252.28 374.34,-252.28 374.34,-207.72 439.29,-207.72 439.29,-246.28 433.29,-252.28"/>
<polyline fill="none" stroke="black" points="433.29,-252.28 433.29,-246.28"/>
<polyline fill="none" stroke="black" points="439.29,-246.28 433.29,-246.28"/>
<text text-anchor="middle" x="406.81" y="-224.57" font-family="Arial" font-size="14.00">File</text>
</g>
<!-- dir&#45;&gt;file -->
<g id="edge3" class="edge">
<title>dir&#45;&gt;file</title>
<path fill="none" stroke="blue" d="M132.75,-236.5C132.75,-236.5 362.52,-236.5 362.52,-236.5"/>
<polygon fill="blue" stroke="blue" points="362.52,-240 372.52,-236.5 362.52,-233 362.52,-240"/>
<text text-anchor="middle" x="196.72" y="-246.5" font-family="Arial" font-size="10.00" fill="gray">Contain</text>
</g>
<!-- pkg -->
<g id="node6" class="node">
<title>pkg</title>
<ellipse fill="#eb984e" stroke="black" cx="83.67" cy="-333" rx="67.67" ry="31.5"/>
<text text-anchor="middle" x="83.67" y="-327.57" font-family="Arial" font-size="14.00">Package</text>
</g>
<!-- ext -->
<g id="node7" class="node">
<title>ext</title>
<polygon fill="#ec7063" stroke="black" points="460.95,-377.55 352.67,-377.55 314.11,-288.45 499.51,-288.45 460.95,-377.55"/>
<text text-anchor="middle" x="406.81" y="-327.57" font-family="Arial" font-size="14.00">External</text>
</g>
<!-- pkg&#45;&gt;ext -->
<g id="edge4" class="edge">
<title>pkg&#45;&gt;ext</title>
<path fill="none" stroke="red" stroke-dasharray="5,2" d="M151.81,-333C151.81,-333 321.34,-333 321.34,-333"/>
<polygon fill="red" stroke="red" points="321.34,-336.5 331.34,-333 321.34,-329.5 321.34,-336.5"/>
<text text-anchor="middle" x="196.72" y="-335.5" font-family="Arial" font-size="10.00" fill="gray">Dependency</text>
</g>
</g>
</svg>
