<?xml version="1.0" encoding="UTF-8" standalone="no"?>
<!DOCTYPE svg PUBLIC "-//W3C//DTD SVG 1.1//EN"
 "http://www.w3.org/Graphics/SVG/1.1/DTD/svg11.dtd">
<!-- Generated by graphviz version 12.2.1 (20241206.2353)
 -->
<!-- Title: G Pages: 1 -->
<svg width="669pt" height="425pt"
 viewBox="0.00 0.00 668.72 425.00" xmlns="http://www.w3.org/2000/svg" xmlns:xlink="http://www.w3.org/1999/xlink">
<g id="graph0" class="graph" transform="scale(1 1) rotate(0) translate(4 421)">
<title>G</title>
<polygon fill="#f9f9f9" stroke="none" points="-4,4 -4,-421 664.72,-421 664.72,4 -4,4"/>
<g id="clust1" class="cluster">
<title>cluster_1</title>
<polygon fill="#5dade2" fill-opacity="0.125490" stroke="#5dade2" stroke-width="2" points="42.45,-8 42.45,-192 652.72,-192 652.72,-8 42.45,-8"/>
<text text-anchor="middle" x="347.58" y="-174.7" font-family="Arial" font-size="14.00">root</text>
</g>
<g id="clust2" class="cluster">
<title>cluster_legend</title>
<polygon fill="#f9f9f9" stroke="gray" stroke-width="2" stroke-dasharray="5,2" points="8,-200 8,-409 544.1,-409 544.1,-200 8,-200"/>
<text text-anchor="middle" x="276.05" y="-391.7" font-family="Arial" font-size="14.00">Legend</text>
</g>
<!-- n0 -->
<g id="node1" class="node">
<title>n0</title>
<polygon fill="#5dade2" stroke="black" stroke-width="1.5" points="116.9,-120.28 113.9,-124.28 92.9,-124.28 89.9,-120.28 50.45,-120.28 50.45,-75.72 116.9,-75.72 116.9,-120.28"/>
<text text-anchor="middle" x="83.67" y="-92.58" font-family="Arial" font-size="14.00">root</text>
</g>
<!-- n2 -->
<g id="node2" class="node">
<title>n2</title>
<ellipse fill="#eb984e" stroke="black" stroke-width="1.5" cx="443.4" cy="-48" rx="201.31" ry="31.5"/>
<text text-anchor="middle" x="443.4" y="-42.58" font-family="Arial" font-size="14.00">cargo (.): biome_syntax_codegen v0.1.0</text>
</g>
<!-- n0&#45;&gt;n2 -->
<g id="edge2" class="edge">
<title>n0&#45;&gt;n2</title>
<path fill="none" stroke="blue" d="M83.72,-75.39C83.72,-61.41 83.72,-46.11 83.72,-46.11 83.72,-46.11 232.49,-46.11 232.49,-46.11"/>
<polygon fill="blue" stroke="blue" points="232.49,-48.91 240.49,-46.11 232.49,-43.31 232.49,-48.91"/>
<text text-anchor="middle" x="196.72" y="-70.5" font-family="Arial" font-size="10.00" fill="gray">Contain</text>
</g>
<!-- n1 -->
<g id="node3" class="node">
<title>n1</title>
<polygon fill="#fadbd8" stroke="black" points="492.38,-160.28 388.43,-160.28 388.43,-115.72 498.38,-115.72 498.38,-154.28 492.38,-160.28"/>
<polyline fill="none" stroke="black" points="492.38,-160.28 492.38,-154.28"/>
<polyline fill="none" stroke="black" points="498.38,-154.28 492.38,-154.28"/>
<text text-anchor="middle" x="443.4" y="-132.57" font-family="Arial" font-size="14.00">Cargo.toml</text>
</g>
<!-- n0&#45;&gt;n1 -->
<g id="edge1" class="edge">
<title>n0&#45;&gt;n1</title>
<path fill="none" stroke="blue" d="M83.72,-120.62C83.72,-130.67 83.72,-140.28 83.72,-140.28 83.72,-140.28 378.48,-140.28 378.48,-140.28"/>
<polygon fill="blue" stroke="blue" points="378.48,-143.08 386.48,-140.28 378.48,-137.48 378.48,-143.08"/>
<text text-anchor="middle" x="196.72" y="-131.5" font-family="Arial" font-size="10.00" fill="gray">Contain</text>
</g>
<!-- dir -->
<g id="node4" class="node">
<title>dir</title>
<polygon fill="#5dade2" stroke="black" points="132.27,-265.27 129.27,-269.27 108.27,-269.27 105.27,-265.27 35.07,-265.27 35.07,-220.72 132.27,-220.72 132.27,-265.27"/>
<text text-anchor="middle" x="83.67" y="-237.57" font-family="Arial" font-size="14.00">Directory</text>
</g>
<!-- file -->
<g id="node5" class="node">
<title>file</title>
<polygon fill="#fadbd8" stroke="black" points="469.88,-252.28 410.93,-252.28 410.93,-207.72 475.88,-207.72 475.88,-246.28 469.88,-252.28"/>
<polyline fill="none" stroke="black" points="469.88,-252.28 469.88,-246.28"/>
<polyline fill="none" stroke="black" points="475.88,-246.28 469.88,-246.28"/>
<text text-anchor="middle" x="443.4" y="-224.57" font-family="Arial" font-size="14.00">File</text>
</g>
<!-- dir&#45;&gt;file -->
<g id="edge3" class="edge">
<title>dir&#45;&gt;file</title>
<path fill="none" stroke="blue" d="M132.56,-236.5C132.56,-236.5 399.14,-236.5 399.14,-236.5"/>
<polygon fill="blue" stroke="blue" points="399.14,-240 409.14,-236.5 399.14,-233 399.14,-240"/>
<text text-anchor="middle" x="196.72" y="-246.5" font-family="Arial" font-size="10.00" fill="gray">Contain</text>
</g>
<!-- pkg -->
<g id="node6" class="node">
<title>pkg</title>
<ellipse fill="#eb984e" stroke="black" cx="83.67" cy="-333" rx="67.67" ry="31.5"/>
<text text-anchor="middle" x="83.67" y="-327.57" font-family="Arial" font-size="14.00">Package</text>
</g>
<!-- ext -->
<g id="node7" class="node">
<title>ext</title>
<polygon fill="#ec7063" stroke="black" points="497.54,-377.55 389.27,-377.55 350.7,-288.45 536.1,-288.45 497.54,-377.55"/>
<text text-anchor="middle" x="443.4" y="-327.57" font-family="Arial" font-size="14.00">External</text>
</g>
<!-- pkg&#45;&gt;ext -->
<g id="edge4" class="edge">
<title>pkg&#45;&gt;ext</title>
<path fill="none" stroke="red" stroke-dasharray="5,2" d="M151.76,-333C151.76,-333 358.2,-333 358.2,-333"/>
<polygon fill="red" stroke="red" points="358.2,-336.5 368.2,-333 358.2,-329.5 358.2,-336.5"/>
<text text-anchor="middle" x="196.72" y="-335.5" font-family="Arial" font-size="10.00" fill="gray">Dependency</text>
</g>
</g>
</svg>
